<svg width="97" height="97" xmlns="http://www.w3.org/2000/svg" xmlns:xlink="http://www.w3.org/1999/xlink" xml:space="preserve" overflow="hidden"><defs><clipPath id="clip0"><rect x="1041" y="601" width="97" height="97"/></clipPath><clipPath id="clip1"><rect x="1042" y="602" width="96" height="96"/></clipPath><clipPath id="clip2"><rect x="1042" y="602" width="96" height="96"/></clipPath><clipPath id="clip3"><rect x="1042" y="602" width="96" height="96"/></clipPath></defs><g clip-path="url(#clip0)" transform="translate(-1041 -601)"><g clip-path="url(#clip1)"><g clip-path="url(#clip2)"><g clip-path="url(#clip3)"><path d="M1118 662 1062 662 1062 628 1118 628ZM1124 626C1124 623.791 1122.21 622 1120 622L1060 622C1057.79 622 1056 623.791 1056 626L1056 668 1124 668Z" fill="#000000" fill-rule="nonzero" fill-opacity="1"/><path d="M1096 672 1096 673C1096.03 673.518 1095.64 673.966 1095.12 674 1095.08 674.003 1095.04 674.003 1095 674L1085 674C1084.48 674.034 1084.03 673.642 1084 673.124 1084 673.083 1084 673.041 1084 673L1084 672 1044 672 1044 674C1044 676.209 1045.79 678 1048 678L1132 678C1134.21 678 1136 676.209 1136 674L1136 672Z" fill="#000000" fill-rule="nonzero" fill-opacity="1"/><path d="M1090 631C1082.27 631 1076 637.268 1076 645 1076 652.732 1082.27 659 1090 659 1097.73 659 1104 652.732 1104 645 1104 637.268 1097.73 631 1090 631ZM1091 646 1095.59 646C1095.07 649.447 1093.46 652.638 1091 655.11ZM1091 644 1091 634.88C1093.46 637.354 1095.07 640.549 1095.59 644ZM1089 644 1084.56 644C1085.06 640.608 1086.61 637.459 1089 635ZM1089 646 1089 655C1086.62 652.538 1085.06 649.391 1084.56 646ZM1082.55 644 1078.27 644C1078.71 638.762 1082.58 634.455 1087.74 633.45 1084.89 636.295 1083.06 640.005 1082.55 644ZM1082.55 646C1083.06 650.001 1084.9 653.717 1087.76 656.56 1082.59 655.556 1078.72 651.245 1078.27 646ZM1097.6 646 1101.73 646C1101.29 651.179 1097.51 655.456 1092.42 656.52 1095.27 653.688 1097.09 649.985 1097.6 646ZM1097.6 644C1097.09 640.025 1095.28 636.33 1092.45 633.49 1097.52 634.565 1101.29 638.834 1101.73 644Z" fill="#000000" fill-rule="nonzero" fill-opacity="1"/></g></g></g></g></svg>